<svg width="766" height="186" viewBox="0 0 766 186" fill="none" xmlns="http://www.w3.org/2000/svg">
<g filter="url(#filter0_d_692_178)">
<path opacity="0.2" d="M118.014 155.676C105.972 155.676 86.0727 155.535 63.1723 141.856C40.272 128.177 32.8605 111.02 30.4866 102.261C30.2618 101.475 30.1942 100.652 30.2875 99.8397C30.3809 99.0275 30.6334 98.2416 31.0307 97.5271C31.428 96.8126 31.9622 96.1833 32.6029 95.6754C33.2435 95.1675 33.978 94.7909 34.7643 94.567C42.6743 92.5969 50.9254 92.4256 58.9104 94.0656C52.9326 75.3568 55.7765 60.8158 58.1269 53.5532C58.6194 52.0561 59.645 50.7922 61.0087 50.002C62.3723 49.2118 63.9789 48.9505 65.5227 49.2677C71.4456 50.5291 81.4111 53.8274 91.8467 62.2887C88.3236 71.9178 86.5718 82.1049 86.676 92.3577C86.676 138.44 118.014 155.676 118.014 155.676ZM201.264 94.567C193.354 92.5969 185.103 92.4256 177.118 94.0656C183.096 75.3568 180.252 60.8158 177.901 53.5532C177.409 52.0561 176.383 50.7922 175.02 50.002C173.656 49.2118 172.049 48.9505 170.506 49.2677C164.614 50.5291 154.648 53.8118 144.213 62.2887C147.725 71.9198 149.466 82.1068 149.352 92.3577C149.352 138.44 118.014 155.676 118.014 155.676C130.056 155.676 149.956 155.535 172.856 141.856C195.756 128.177 203.168 111.035 205.542 102.261C205.766 101.475 205.834 100.652 205.741 99.8397C205.647 99.0275 205.395 98.2416 204.998 97.5271C204.6 96.8126 204.066 96.1833 203.425 95.6754C202.785 95.1675 202.05 94.7909 201.264 94.567Z" fill="#45D9A6"/>
<path d="M210.328 94.2771C209.528 92.8725 208.457 91.6413 207.176 90.6553C205.896 89.6693 204.431 88.9483 202.869 88.5344C197.201 87.0755 191.344 86.489 185.5 86.7951C188.634 71.2436 186.283 58.9433 183.886 51.6494C182.93 48.6532 180.893 46.1202 178.172 44.5444C175.45 42.9685 172.239 42.4626 169.165 43.1254C161.193 44.9009 153.612 48.119 146.797 52.6209C141.806 42.4253 134.54 33.5128 125.558 26.571C123.381 24.9386 120.734 24.0562 118.013 24.0562C115.293 24.0562 112.645 24.9386 110.469 26.571C101.485 33.5108 94.2178 42.4238 89.2292 52.6209C82.4143 48.119 74.8338 44.9009 66.8616 43.1254C63.7873 42.4626 60.5764 42.9685 57.8548 44.5444C55.1332 46.1202 53.0961 48.6532 52.1405 51.6494C49.7901 58.9433 47.4397 71.2357 50.5265 86.7951C44.6821 86.489 38.8251 87.0755 33.1574 88.5344C31.5951 88.9483 30.1309 89.6693 28.8503 90.6553C27.5697 91.6413 26.4984 92.8725 25.6989 94.2771C24.8622 95.716 24.3205 97.307 24.1052 98.9575C23.89 100.608 24.0056 102.285 24.4454 103.89C27.1013 113.738 35.257 132.47 59.9593 147.231C84.6616 161.991 106.363 161.944 118.052 161.944C129.742 161.944 151.482 161.944 176.028 147.231C200.73 132.47 208.886 113.738 211.542 103.89C211.988 102.287 212.11 100.612 211.901 98.9615C211.693 97.3111 211.158 95.7187 210.328 94.2771ZM64.0646 55.504C64.074 55.4651 64.0979 55.4313 64.1314 55.4094C64.1649 55.3876 64.2055 55.3794 64.2448 55.3865C71.5348 57.0332 78.4142 60.1438 84.4658 64.5294C81.7103 73.5435 80.3419 82.9242 80.4075 92.3498C80.4075 107.032 83.3611 118.987 87.5447 128.608C81.5971 122.655 76.4509 115.952 72.2361 108.669C58.1182 84.0844 61.0562 64.7957 64.0646 55.504ZM66.415 136.474C45.5203 124.001 38.7434 108.708 36.5341 100.6C42.2989 99.1803 48.2809 98.8692 54.1618 99.6829C56.1251 104.942 58.5229 110.029 61.3304 114.89C68.2236 126.774 77.2545 137.282 87.9678 145.883C80.3922 143.705 73.1355 140.542 66.3837 136.474H66.415ZM118.013 148.155C110.704 142.718 92.9427 126.038 92.9427 92.3498C92.9427 59.0765 110.476 42.2636 118.013 36.5914C125.55 42.2793 143.084 59.0922 143.084 92.3655C143.084 126.038 125.323 142.718 118.013 148.155ZM151.561 64.5294C157.613 60.1466 164.492 57.0387 171.782 55.3943C171.821 55.3872 171.862 55.3954 171.895 55.4172C171.929 55.4391 171.953 55.4729 171.962 55.5118C174.97 64.7957 177.908 84.0844 163.79 108.669C159.579 115.962 154.433 122.673 148.482 128.632C152.665 119.026 155.619 107.055 155.619 92.3733C155.687 82.9398 154.319 73.551 151.561 64.5294ZM199.492 100.615C197.322 108.646 190.561 123.97 169.651 136.474C162.898 140.539 155.642 143.7 148.067 145.875C158.78 137.274 167.811 126.766 174.704 114.882C177.511 110.021 179.909 104.934 181.873 99.6751C187.752 98.865 193.732 99.1814 199.492 100.607V100.615Z" fill="#45D9A6"/>
</g>
<g filter="url(#filter1_d_692_178)">
<path d="M270.328 138L237.432 47.12H254.968L280.44 119.44L305.784 47.12H323.32L290.296 138H270.328ZM332.74 138V47.12H393.924V61.584H349.38V85.264H392.388V99.6H349.38V123.536H394.948V138H332.74ZM410.615 138V47.12H430.071L469.239 115.472V47.12H485.879V138H465.911L427.255 71.568V138H410.615ZM542.672 140.048C535.333 140.048 528.891 138.64 523.344 135.824C517.883 133.008 513.659 129.04 510.672 123.92C507.771 118.715 506.32 112.571 506.32 105.488V46.992H522.96V105.488C522.96 111.888 524.667 116.837 528.08 120.336C531.493 123.835 536.357 125.584 542.672 125.584C548.987 125.584 553.851 123.835 557.264 120.336C560.763 116.837 562.512 111.888 562.512 105.488V46.992H579.152V105.488C579.152 112.571 577.659 118.715 574.672 123.92C571.685 129.04 567.461 133.008 562 135.824C556.624 138.64 550.181 140.048 542.672 140.048ZM632.044 140.048C624.535 140.048 618.049 138.725 612.588 136.08C607.127 133.435 602.817 129.765 599.66 125.072C596.588 120.293 594.796 114.747 594.284 108.432L611.18 107.408C611.692 111.333 612.801 114.661 614.508 117.392C616.3 120.123 618.647 122.213 621.548 123.664C624.535 125.029 628.119 125.712 632.3 125.712C635.884 125.712 638.913 125.285 641.388 124.432C643.948 123.493 645.868 122.171 647.148 120.464C648.513 118.672 649.196 116.496 649.196 113.936C649.196 111.632 648.641 109.584 647.532 107.792C646.423 105.915 644.289 104.251 641.132 102.8C637.975 101.264 633.281 99.7707 627.052 98.32C619.543 96.6133 613.527 94.6933 609.004 92.56C604.481 90.3413 601.196 87.6107 599.148 84.368C597.1 81.04 596.076 76.9013 596.076 71.952C596.076 66.6613 597.399 62.0107 600.044 58C602.689 53.904 606.444 50.7467 611.308 48.528C616.172 46.224 622.017 45.072 628.844 45.072C636.097 45.072 642.241 46.3947 647.276 49.04C652.311 51.6 656.279 55.1413 659.18 59.664C662.081 64.1867 663.873 69.392 664.556 75.28L647.788 76.048C647.361 72.72 646.337 69.8187 644.716 67.344C643.18 64.8693 641.047 62.9493 638.316 61.584C635.671 60.1333 632.428 59.408 628.588 59.408C623.809 59.408 620.012 60.5173 617.196 62.736C614.465 64.8693 613.1 67.728 613.1 71.312C613.1 73.7867 613.655 75.8347 614.764 77.456C615.959 79.0773 618.049 80.4853 621.036 81.68C624.023 82.7893 628.204 83.984 633.58 85.264C641.687 86.9707 648.129 89.1467 652.908 91.792C657.687 94.4373 661.1 97.5093 663.148 101.008C665.196 104.507 666.22 108.517 666.22 113.04C666.22 118.587 664.812 123.408 661.996 127.504C659.18 131.515 655.212 134.629 650.092 136.848C644.972 138.981 638.956 140.048 632.044 140.048ZM696.931 138V61.584H669.283V47.12H741.091V61.584H713.571V138H696.931Z" fill="#45D9A6"/>
</g>
<defs>
<filter id="filter0_d_692_178" x="0" y="0.0561523" width="236" height="185.888" filterUnits="userSpaceOnUse" color-interpolation-filters="sRGB">
<feFlood flood-opacity="0" result="BackgroundImageFix"/>
<feColorMatrix in="SourceAlpha" type="matrix" values="0 0 0 0 0 0 0 0 0 0 0 0 0 0 0 0 0 0 127 0" result="hardAlpha"/>
<feOffset/>
<feGaussianBlur stdDeviation="12"/>
<feComposite in2="hardAlpha" operator="out"/>
<feColorMatrix type="matrix" values="0 0 0 0 0.270588 0 0 0 0 0.85098 0 0 0 0 0.65098 0 0 0 0.5 0"/>
<feBlend mode="normal" in2="BackgroundImageFix" result="effect1_dropShadow_692_178"/>
<feBlend mode="normal" in="SourceGraphic" in2="effect1_dropShadow_692_178" result="shape"/>
</filter>
<filter id="filter1_d_692_178" x="213.432" y="21.072" width="551.659" height="142.976" filterUnits="userSpaceOnUse" color-interpolation-filters="sRGB">
<feFlood flood-opacity="0" result="BackgroundImageFix"/>
<feColorMatrix in="SourceAlpha" type="matrix" values="0 0 0 0 0 0 0 0 0 0 0 0 0 0 0 0 0 0 127 0" result="hardAlpha"/>
<feOffset/>
<feGaussianBlur stdDeviation="12"/>
<feComposite in2="hardAlpha" operator="out"/>
<feColorMatrix type="matrix" values="0 0 0 0 0.270588 0 0 0 0 0.85098 0 0 0 0 0.65098 0 0 0 0.5 0"/>
<feBlend mode="normal" in2="BackgroundImageFix" result="effect1_dropShadow_692_178"/>
<feBlend mode="normal" in="SourceGraphic" in2="effect1_dropShadow_692_178" result="shape"/>
</filter>
</defs>
</svg>
